#Comment line ignore any data following # character 
#Hierarchical Translation and Rotation (.htr) file 
[Header]	
#Header keywords are followed by a single value 
FileType HTR		#Single word string
DataType HTRS		#Translation followed by rotation and scale data
FileVersion 1		#integer
NumSegments 84		#integer
NumFrames 2		#integer
DataFrameRate 30		#integer, data frame rate in this file
EulerRotationOrder ZYX
CalibrationUnits mm
RotationUnits Degrees
GlobalAxisofGravity Y
BoneLengthAxis Y
ScaleFactor 1.00
[SegmentNames&Hierarchy]
#CHILD	PARENT
MASTER GLOBAL
root MASTER
chest root
L_mid_tent01 root
R_mid_tent01 root
spine01 root
Bip01_Neck chest
L_humerus chest
R_humerus chest
weapon_bone chest
Bip01_Head Bip01_Neck
eye_left_bone Bip01_Head
eye_right_bone Bip01_Head
L_forearm L_humerus
L_front_hand L_forearm
L_weapon_bone L_forearm
L_front_hand01_01 L_front_hand
L_front_hand02_01 L_front_hand
L_front_hand03_01 L_front_hand
L_front_hand01_02 L_front_hand01_01
L_front_hand02_02 L_front_hand02_01
L_front_hand03_02 L_front_hand03_01
R_forearm R_humerus
R_front_hand R_forearm
R_weapon_bone R_forearm
R_front_hand01_01 R_front_hand
R_front_hand02_01 R_front_hand
R_front_hand03_01 R_front_hand
R_front_hand01_02 R_front_hand01_01
R_front_hand02_02 R_front_hand02_01
R_front_hand03_02 R_front_hand03_01
null_rope01_connect L_mid_tent01
Rope1_Seg01 null_rope01_connect
Rope1_Seg02 Rope1_Seg01
Rope1_Seg03 Rope1_Seg02
Rope1_Seg04 Rope1_Seg03
Rope1_Seg05 Rope1_Seg04
Rope1_Seg06 Rope1_Seg05
Rope1_Seg07 Rope1_Seg06
Rope1_Seg09 Rope1_Seg07
L_mid_hand01 Rope1_Seg09
L_mid_hand02 Rope1_Seg09
L_mid_hand03 Rope1_Seg09
null_rope02_connect R_mid_tent01
Rope2_Seg01 null_rope02_connect
Rope2_Seg02 Rope2_Seg01
Rope2_Seg03 Rope2_Seg02
Rope2_Seg04 Rope2_Seg03
Rope2_Seg05 Rope2_Seg04
Rope2_Seg06 Rope2_Seg05
Rope2_Seg07 Rope2_Seg06
Rope2_Seg09 Rope2_Seg07
R_mid_hand01 Rope2_Seg09
R_mid_hand02 Rope2_Seg09
R_mid_hand03 Rope2_Seg09
spine02 spine01
spine03 spine02
pelvis spine03
null_rope03_connect pelvis
null_rope04_connect pelvis
Rope3_Seg01 null_rope03_connect
Rope3_Seg02 Rope3_Seg01
Rope3_Seg03 Rope3_Seg02
Rope3_Seg04 Rope3_Seg03
Rope3_Seg05 Rope3_Seg04
Rope3_Seg06 Rope3_Seg05
Rope3_Seg07 Rope3_Seg06
Rope3_Seg08 Rope3_Seg07
Rope3_Seg09 Rope3_Seg08
R_rear_hand01 Rope3_Seg09
R_rear_hand02 Rope3_Seg09
R_rear_hand03 Rope3_Seg09
Rope4_Seg01 null_rope04_connect
Rope4_Seg02 Rope4_Seg01
Rope4_Seg03 Rope4_Seg02
Rope4_Seg04 Rope4_Seg03
Rope4_Seg05 Rope4_Seg04
Rope4_Seg06 Rope4_Seg05
Rope4_Seg07 Rope4_Seg06
Rope4_Seg08 Rope4_Seg07
Rope4_Seg09 Rope4_Seg08
L_rear_hand01 Rope4_Seg09
L_rear_hand02 Rope4_Seg09
L_rear_hand03 Rope4_Seg09
[BasePosition]
#SegmentName Tx, Ty, Tz, Rx, Ry, Rz, BoneLength
MASTER 0.000000 0.000000 0.000000 -90.000000 0.000000 0.000000 10.000000 
root 0.000000 0.000000 0.000000 0.000000 0.000000 0.000000 10.000000 
chest 0.000000 0.000000 0.000000 0.000000 0.000000 0.000000 10.000000 
L_mid_tent01 0.000000 0.000000 0.000000 0.000000 0.000000 0.000000 10.000000 
R_mid_tent01 0.000000 0.000000 0.000000 0.000000 0.000000 0.000000 10.000000 
spine01 0.000000 0.000000 0.000000 0.000000 0.000000 0.000000 10.000000 
Bip01_Neck 0.000000 0.000000 0.000000 0.000000 0.000000 0.000000 10.000000 
L_humerus 0.000000 0.000000 0.000000 0.000000 0.000000 0.000000 10.000000 
R_humerus 0.000000 0.000000 0.000000 0.000000 0.000000 0.000000 10.000000 
weapon_bone 0.000000 0.000000 0.000000 0.000000 0.000000 0.000000 10.000000 
Bip01_Head 0.000000 0.000000 0.000000 0.000000 0.000000 0.000000 10.000000 
eye_left_bone 0.000000 0.000000 0.000000 0.000000 0.000000 0.000000 10.000000 
eye_right_bone 0.000000 0.000000 0.000000 0.000000 0.000000 0.000000 10.000000 
L_forearm 0.000000 0.000000 0.000000 0.000000 0.000000 0.000000 10.000000 
L_front_hand 0.000000 0.000000 0.000000 0.000000 0.000000 0.000000 10.000000 
L_weapon_bone 0.000000 0.000000 0.000000 0.000000 0.000000 0.000000 10.000000 
L_front_hand01_01 0.000000 0.000000 0.000000 0.000000 0.000000 0.000000 10.000000 
L_front_hand02_01 0.000000 0.000000 0.000000 0.000000 0.000000 0.000000 10.000000 
L_front_hand03_01 0.000000 0.000000 0.000000 0.000000 0.000000 0.000000 10.000000 
L_front_hand01_02 0.000000 0.000000 0.000000 0.000000 0.000000 0.000000 10.000000 
L_front_hand02_02 0.000000 0.000000 0.000000 0.000000 0.000000 0.000000 10.000000 
L_front_hand03_02 0.000000 0.000000 0.000000 0.000000 0.000000 0.000000 10.000000 
R_forearm 0.000000 0.000000 0.000000 0.000000 0.000000 0.000000 10.000000 
R_front_hand 0.000000 0.000000 0.000000 0.000000 0.000000 0.000000 10.000000 
R_weapon_bone 0.000000 0.000000 0.000000 0.000000 0.000000 0.000000 10.000000 
R_front_hand01_01 0.000000 0.000000 0.000000 0.000000 0.000000 0.000000 10.000000 
R_front_hand02_01 0.000000 0.000000 0.000000 0.000000 0.000000 0.000000 10.000000 
R_front_hand03_01 0.000000 0.000000 0.000000 0.000000 0.000000 0.000000 10.000000 
R_front_hand01_02 0.000000 0.000000 0.000000 0.000000 0.000000 0.000000 10.000000 
R_front_hand02_02 0.000000 0.000000 0.000000 0.000000 0.000000 0.000000 10.000000 
R_front_hand03_02 0.000000 0.000000 0.000000 0.000000 0.000000 0.000000 10.000000 
null_rope01_connect 0.000000 0.000000 0.000000 0.000000 0.000000 0.000000 10.000000 
Rope1_Seg01 0.000000 0.000000 0.000000 0.000000 0.000000 0.000000 10.000000 
Rope1_Seg02 0.000000 0.000000 0.000000 0.000000 0.000000 0.000000 10.000000 
Rope1_Seg03 0.000000 0.000000 0.000000 0.000000 0.000000 0.000000 10.000000 
Rope1_Seg04 0.000000 0.000000 0.000000 0.000000 0.000000 0.000000 10.000000 
Rope1_Seg05 0.000000 0.000000 0.000000 0.000000 0.000000 0.000000 10.000000 
Rope1_Seg06 0.000000 0.000000 0.000000 0.000000 0.000000 0.000000 10.000000 
Rope1_Seg07 0.000000 0.000000 0.000000 0.000000 0.000000 0.000000 10.000000 
Rope1_Seg09 0.000000 0.000000 0.000000 0.000000 0.000000 0.000000 10.000000 
L_mid_hand01 0.000000 0.000000 0.000000 0.000000 0.000000 0.000000 10.000000 
L_mid_hand02 0.000000 0.000000 0.000000 0.000000 0.000000 0.000000 10.000000 
L_mid_hand03 0.000000 0.000000 0.000000 0.000000 0.000000 0.000000 10.000000 
null_rope02_connect 0.000000 0.000000 0.000000 0.000000 0.000000 0.000000 10.000000 
Rope2_Seg01 0.000000 0.000000 0.000000 0.000000 0.000000 0.000000 10.000000 
Rope2_Seg02 0.000000 0.000000 0.000000 0.000000 0.000000 0.000000 10.000000 
Rope2_Seg03 0.000000 0.000000 0.000000 0.000000 0.000000 0.000000 10.000000 
Rope2_Seg04 0.000000 0.000000 0.000000 0.000000 0.000000 0.000000 10.000000 
Rope2_Seg05 0.000000 0.000000 0.000000 0.000000 0.000000 0.000000 10.000000 
Rope2_Seg06 0.000000 0.000000 0.000000 0.000000 0.000000 0.000000 10.000000 
Rope2_Seg07 0.000000 0.000000 0.000000 0.000000 0.000000 0.000000 10.000000 
Rope2_Seg09 0.000000 0.000000 0.000000 0.000000 0.000000 0.000000 10.000000 
R_mid_hand01 0.000000 0.000000 0.000000 0.000000 0.000000 0.000000 10.000000 
R_mid_hand02 0.000000 0.000000 0.000000 0.000000 0.000000 0.000000 10.000000 
R_mid_hand03 0.000000 0.000000 0.000000 0.000000 0.000000 0.000000 10.000000 
spine02 0.000000 0.000000 0.000000 0.000000 0.000000 0.000000 10.000000 
spine03 0.000000 0.000000 0.000000 0.000000 0.000000 0.000000 10.000000 
pelvis 0.000000 0.000000 0.000000 0.000000 0.000000 0.000000 10.000000 
null_rope03_connect 0.000000 0.000000 0.000000 0.000000 0.000000 0.000000 10.000000 
null_rope04_connect 0.000000 0.000000 0.000000 0.000000 0.000000 0.000000 10.000000 
Rope3_Seg01 0.000000 0.000000 0.000000 0.000000 0.000000 0.000000 10.000000 
Rope3_Seg02 0.000000 0.000000 0.000000 0.000000 0.000000 0.000000 10.000000 
Rope3_Seg03 0.000000 0.000000 0.000000 0.000000 0.000000 0.000000 10.000000 
Rope3_Seg04 0.000000 0.000000 0.000000 0.000000 0.000000 0.000000 10.000000 
Rope3_Seg05 0.000000 0.000000 0.000000 0.000000 0.000000 0.000000 10.000000 
Rope3_Seg06 0.000000 0.000000 0.000000 0.000000 0.000000 0.000000 10.000000 
Rope3_Seg07 0.000000 0.000000 0.000000 0.000000 0.000000 0.000000 10.000000 
Rope3_Seg08 0.000000 0.000000 0.000000 0.000000 0.000000 0.000000 10.000000 
Rope3_Seg09 0.000000 0.000000 0.000000 0.000000 0.000000 0.000000 10.000000 
R_rear_hand01 0.000000 0.000000 0.000000 0.000000 0.000000 0.000000 10.000000 
R_rear_hand02 0.000000 0.000000 0.000000 0.000000 0.000000 0.000000 10.000000 
R_rear_hand03 0.000000 0.000000 0.000000 0.000000 0.000000 0.000000 10.000000 
Rope4_Seg01 0.000000 0.000000 0.000000 0.000000 0.000000 0.000000 10.000000 
Rope4_Seg02 0.000000 0.000000 0.000000 0.000000 0.000000 0.000000 10.000000 
Rope4_Seg03 0.000000 0.000000 0.000000 0.000000 0.000000 0.000000 10.000000 
Rope4_Seg04 0.000000 0.000000 0.000000 0.000000 0.000000 0.000000 10.000000 
Rope4_Seg05 0.000000 0.000000 0.000000 0.000000 0.000000 0.000000 10.000000 
Rope4_Seg06 0.000000 0.000000 0.000000 0.000000 0.000000 0.000000 10.000000 
Rope4_Seg07 0.000000 0.000000 0.000000 0.000000 0.000000 0.000000 10.000000 
Rope4_Seg08 0.000000 0.000000 0.000000 0.000000 0.000000 0.000000 10.000000 
Rope4_Seg09 0.000000 0.000000 0.000000 0.000000 0.000000 0.000000 10.000000 
L_rear_hand01 0.000000 0.000000 0.000000 0.000000 0.000000 0.000000 10.000000 
L_rear_hand02 0.000000 0.000000 0.000000 0.000000 0.000000 0.000000 10.000000 
L_rear_hand03 0.000000 0.000000 0.000000 0.000000 0.000000 0.000000 10.000000 
#Beginning of Data. Separated by tabs
#Fr	Tx	Ty	Tz	Rx	Ry	Rz	SF
[MASTER]
32 0.000000 0.000000 0.000000 0.001660 0.001660 0.001660 0.000000
33 0.000000 0.000000 0.000000 0.001660 0.001660 0.001660 0.000000
[root]
32 -16.502291 -62.822109 1559.648315 -91.629700 -27.676081 -90.148109 1561.000244
33 -16.502291 -62.822109 1538.722900 -91.629700 -27.676081 -90.148109 1540.093262
[chest]
32 -84.512650 -34.090519 0.000000 -2.401902 0.487218 177.831177 91.129311
33 -84.512650 -34.090519 0.000000 -2.456201 0.556237 177.171387 91.129311
[L_mid_tent01]
32 27.299721 22.177235 -249.917725 -20.118076 26.946129 41.827461 252.380615
33 27.299742 22.177206 -249.917694 -22.461750 23.849907 37.019390 252.380585
[R_mid_tent01]
32 23.228794 24.509907 226.238495 177.879440 -29.279396 52.671143 228.744751
33 23.228794 24.509907 226.238495 179.263672 -25.483032 48.530258 228.744751
[spine01]
32 -0.361383 -0.195265 0.000000 0.001879 0.001406 16.373127 0.410763
33 -0.361383 -0.195265 0.000000 0.001877 0.001410 16.158360 0.410763
[Bip01_Neck]
32 165.484543 71.581718 0.000119 175.896118 1.177290 24.871183 180.302734
33 165.484543 71.581718 0.000119 175.896118 1.177290 24.871183 180.302734
[L_humerus]
32 -13.983130 -135.272980 -120.471481 172.249237 34.765186 -112.619865 181.680161
33 -13.983130 -135.272980 -120.471481 169.094070 43.715919 -111.206390 181.680161
[R_humerus]
32 -13.983309 -135.273102 125.287651 -171.527191 -33.818466 -108.829330 184.909012
33 -13.983309 -135.273102 125.287651 -170.501022 -42.075336 -105.667397 184.909012
[weapon_bone]
32 235.964890 -300.705902 0.000000 0.000000 -89.951546 -128.212341 382.234833
33 235.964890 -300.705902 0.000000 0.000000 -89.951546 -128.212341 382.234833
[Bip01_Head]
32 165.478317 242.010498 20.736731 0.918145 3.911419 -27.687143 293.908447
33 179.195526 233.214111 19.336777 1.549501 3.733729 -31.517960 294.743561
[eye_left_bone]
32 -24.626970 125.451866 -64.772606 0.000000 -90.000000 -99.840431 143.318359
33 -24.626970 125.451866 -64.772606 0.000000 -90.000000 -99.840431 143.318359
[eye_right_bone]
32 -24.626970 125.451866 64.327362 0.000000 -89.960434 80.159386 143.117676
33 -24.626970 125.451866 64.327362 0.000000 -89.960434 80.159386 143.117676
[L_forearm]
32 322.776093 0.000000 -0.000119 0.000017 0.002347 -89.149834 322.776093
33 322.776093 0.000000 -0.000119 0.000017 0.002347 -89.149834 322.776093
[L_front_hand]
32 241.149185 -0.042021 -3.300071 -179.287796 -2.155166 -9.689075 241.171753
33 241.149185 -0.042021 -3.300071 -179.096283 -2.083501 -14.866675 241.171753
[L_weapon_bone]
32 151.222366 35.740055 0.001724 0.001886 0.001397 16.967945 155.388397
33 150.986664 37.437836 0.002075 0.001880 0.001405 16.473066 155.558868
[L_front_hand01_01]
32 86.095154 20.947098 -0.655860 0.405585 -0.442306 -4.620490 88.609184
33 86.095154 20.947098 -0.655860 0.405585 -0.442306 -4.620490 88.609184
[L_front_hand02_01]
32 86.935165 -11.437475 24.513514 116.959450 3.630818 1.495453 91.046425
33 86.935165 -11.437475 24.513514 116.959450 3.630817 1.495453 91.046425
[L_front_hand03_01]
32 86.637497 -14.123976 -20.424902 -118.420097 -4.656303 -0.152527 90.126129
33 86.637497 -14.123976 -20.424902 -118.420097 -4.656303 -0.152527 90.126129
[L_front_hand01_02]
32 71.020905 -0.000179 0.000030 0.000004 -0.000005 -8.379269 71.020905
33 71.020905 -0.000179 0.000030 0.000004 -0.000005 -8.379269 71.020905
[L_front_hand02_02]
32 71.020927 -0.000119 0.000060 -0.000005 -0.000004 -8.379259 71.020927
33 71.020927 -0.000119 0.000060 -0.000005 -0.000004 -8.379259 71.020927
[L_front_hand03_02]
32 71.020905 -0.000060 0.000060 0.000015 -0.000040 -8.379267 71.020905
33 71.020905 -0.000060 0.000060 0.000015 -0.000040 -8.379267 71.020905
[R_forearm]
32 322.776428 -0.000060 0.000030 0.203686 -0.060025 -74.836075 322.776428
33 322.776428 -0.000060 0.000030 0.199434 -0.076303 -69.511238 322.776428
[R_front_hand]
32 238.847015 -0.006795 2.210259 -0.868451 1.491674 -18.905798 238.857239
33 238.847015 -0.006795 2.210259 -1.002726 1.405421 -24.198990 238.857239
[R_weapon_bone]
32 155.664093 0.002503 -0.000030 0.003463 0.001247 -93.207832 155.664078
33 155.664093 0.002503 -0.000030 0.003473 0.001219 -92.285439 155.664078
[R_front_hand01_01]
32 87.624611 14.231146 22.918642 -116.960205 3.496675 -1.324138 91.683487
33 87.624611 14.231146 22.918642 -116.960213 3.496675 -1.324139 91.683487
[R_front_hand02_01]
32 89.356956 14.367283 -19.491137 118.419647 -4.257089 0.609827 92.579636
33 89.356956 14.367283 -19.491137 118.419647 -4.257089 0.609827 92.579636
[R_front_hand03_01]
32 87.286232 -22.307278 -0.143439 -0.387970 -0.231462 4.232001 90.091743
33 87.286232 -22.307278 -0.143439 -0.387970 -0.231462 4.232001 90.091743
[R_front_hand01_02]
32 71.020905 0.000060 0.000119 -0.000005 -0.000020 8.379271 71.020905
33 71.020905 0.000060 0.000119 -0.000005 -0.000020 8.379271 71.020905
[R_front_hand02_02]
32 71.020844 -0.000030 -0.000119 0.000000 -0.000021 8.379271 71.020836
33 71.020844 -0.000030 -0.000119 0.000000 -0.000021 8.379271 71.020836
[R_front_hand03_02]
32 71.020905 0.000000 0.000030 -0.000001 -0.000020 8.379275 71.020905
33 71.020905 0.000000 0.000030 -0.000001 -0.000020 8.379275 71.020905
[null_rope01_connect]
32 328.732483 0.000000 -0.000238 -143.309311 -55.135799 -145.667419 328.732483
33 328.732483 0.000000 -0.000238 -145.112747 -55.995644 -139.010284 328.732483
[Rope1_Seg01]
32 0.000009 -0.000043 0.000135 -86.977798 30.728489 -113.441872 0.000142
33 0.000007 -0.000041 0.000140 -38.427567 24.345743 -106.798912 0.000146
[Rope1_Seg02]
32 139.999863 -0.000179 0.000000 17.072998 -6.024014 0.644132 139.999863
33 139.999863 -0.000179 0.000000 6.657643 -4.692092 2.217790 139.999863
[Rope1_Seg03]
32 139.999924 0.000060 -0.000060 8.777081 -6.509479 2.502703 139.999924
33 139.999924 0.000060 -0.000060 4.133225 -4.958116 2.958603 139.999924
[Rope1_Seg04]
32 139.999924 -0.000060 -0.000119 7.202878 -8.022717 3.262014 139.999924
33 139.999924 -0.000060 -0.000119 3.862639 -6.346993 3.762996 139.999924
[Rope1_Seg05]
32 139.999832 0.000119 -0.000060 -3.776904 -1.810170 5.601387 139.999832
33 139.999832 0.000119 -0.000060 -1.435333 -1.309126 2.793242 139.999832
[Rope1_Seg06]
32 139.999954 0.000119 -0.000060 -7.302224 1.913157 6.073105 139.999954
33 139.999954 0.000119 -0.000060 -4.742760 2.616803 1.581656 139.999954
[Rope1_Seg07]
32 139.999985 0.000060 0.000000 -3.107281 -0.615523 4.625751 139.999985
33 139.999985 0.000060 0.000000 -2.678420 0.669042 1.880817 139.999985
[Rope1_Seg09]
32 121.602913 0.000119 -0.000089 -89.793175 -1.359789 0.847147 121.602913
33 121.602913 0.000119 -0.000089 -89.793175 -1.359789 0.847147 121.602913
[L_mid_hand01]
32 103.859421 1.038730 8.195221 104.352036 0.341479 -0.444583 104.187431
33 103.859421 1.038730 8.195221 104.352036 0.341479 -0.444583 104.187431
[L_mid_hand02]
32 105.572853 -4.139662 -10.864139 -135.608444 3.905687 -3.381056 106.211075
33 105.572853 -4.139662 -10.864139 -135.608444 3.905687 -3.381056 106.211075
[L_mid_hand03]
32 104.641464 17.579376 -3.913581 -18.761518 -0.324361 2.942912 106.179977
33 104.641464 17.579376 -3.913581 -18.761515 -0.324361 2.942912 106.179977
[null_rope02_connect]
32 328.732849 0.000179 -0.000119 -108.755486 61.986912 5.958258 328.732849
33 328.732849 0.000179 -0.000119 -106.776352 65.813797 4.151613 328.732849
[Rope2_Seg01]
32 0.000119 0.000114 -0.000135 147.187469 37.179119 -67.703392 0.000213
33 0.000118 0.000114 -0.000140 128.505264 30.142553 -74.098343 0.000215
[Rope2_Seg02]
32 139.999741 -0.000060 -0.000119 -1.526176 -1.111630 1.460863 139.999756
33 139.999741 -0.000060 -0.000119 -4.552571 0.543805 2.801661 139.999756
[Rope2_Seg03]
32 140.000107 0.000030 0.000000 -1.520439 -1.538635 1.723790 140.000107
33 140.000107 0.000030 0.000000 -5.368773 0.489405 3.534255 140.000107
[Rope2_Seg04]
32 139.999802 0.000000 -0.000060 0.193758 -2.468084 0.952299 139.999802
33 139.999802 0.000000 -0.000060 -6.958824 0.674701 4.867551 139.999802
[Rope2_Seg05]
32 139.999985 -0.000060 0.000119 -8.550205 -2.365505 8.708552 139.999985
33 139.999985 -0.000060 0.000119 -5.423690 -2.423639 5.625554 139.999985
[Rope2_Seg06]
32 139.999893 -0.000030 -0.000119 -7.342064 -3.014110 9.485742 139.999893
33 139.999893 -0.000030 -0.000119 -2.280578 -2.477657 3.237728 139.999893
[Rope2_Seg07]
32 139.999893 0.000060 -0.000060 -3.509717 -3.147597 6.060402 139.999893
33 139.999893 0.000060 -0.000060 -1.562243 -1.525715 2.273277 139.999893
[Rope2_Seg09]
32 121.338966 0.000089 -0.000060 33.793236 -1.359788 -0.847141 121.338966
33 121.338966 0.000089 -0.000060 33.793236 -1.359788 -0.847141 121.338966
[R_mid_hand01]
32 104.680779 11.144459 -10.335981 -47.384258 2.963522 5.452604 105.778534
33 104.680779 11.144459 -10.335981 -47.384258 2.963522 5.452604 105.778534
[R_mid_hand02]
32 104.070427 2.443552 8.231699 75.626297 -2.250001 1.111093 104.424065
33 104.070427 2.443552 8.231699 75.626305 -2.250001 1.111093 104.424065
[R_mid_hand03]
32 106.028137 -11.221827 -5.996406 -164.381927 2.495983 -6.140520 106.788818
33 106.028137 -11.221827 -5.996406 -164.381912 2.495983 -6.140520 106.788818
[spine02]
32 129.756927 0.001550 0.000119 -0.469347 -4.040196 -1.238814 129.756927
33 129.756927 0.001550 0.000119 -0.418786 -4.047617 -1.968122 129.756927
[spine03]
32 78.690483 0.074595 -4.153686 0.166485 4.345071 -7.411164 78.800072
33 78.671410 0.077957 -4.339972 0.231278 4.326105 -6.645086 78.791069
[pelvis]
32 169.435242 0.051022 0.000000 -0.879251 -0.640529 0.100540 169.435257
33 169.435242 0.051022 0.000000 -0.644240 -0.525045 -0.435573 169.435257
[null_rope03_connect]
32 -1.257226 -2.466202 137.391083 -160.132339 -87.682350 -90.005074 137.418976
33 -1.257226 -2.466202 137.391083 -157.150803 -87.967987 -92.266945 137.418976
[null_rope04_connect]
32 -1.259640 -2.480268 -137.844437 -160.132339 -87.682350 -90.005074 137.872513
33 -1.259640 -2.480268 -137.844437 -157.150803 -87.967987 -92.266945 137.872513
[Rope3_Seg01]
32 -0.000039 -0.000021 -0.000001 -130.639206 6.862514 -76.856987 0.000044
33 -0.000039 -0.000025 -0.000001 -130.587341 5.149128 -76.505943 0.000046
[Rope3_Seg02]
32 139.999924 -0.000119 0.000060 0.048647 2.461628 -2.649008 139.999924
33 139.999924 -0.000119 0.000060 0.055597 1.787861 -1.298359 139.999924
[Rope3_Seg03]
32 139.999924 -0.000119 0.000119 -0.094035 3.571872 -3.861481 139.999924
33 139.999924 -0.000119 0.000119 0.026453 2.490256 -1.818265 139.999924
[Rope3_Seg04]
32 139.999924 0.000119 0.000000 -1.403205 8.545332 -10.114854 139.999924
33 139.999924 0.000119 0.000000 -0.269187 5.492075 -4.508217 139.999924
[Rope3_Seg05]
32 139.999924 -0.000238 0.000060 -1.115804 6.943731 -6.307462 139.999924
33 139.999924 -0.000238 0.000060 -0.331861 7.348544 -5.190356 139.999924
[Rope3_Seg06]
32 139.999893 -0.000119 -0.000060 0.647004 -5.688319 8.583942 139.999893
33 139.999893 -0.000119 -0.000060 0.058660 -5.606893 6.627709 139.999893
[Rope3_Seg07]
32 139.999771 0.000060 -0.000119 0.537276 -1.007390 2.094128 139.999771
33 139.999771 0.000060 -0.000119 0.392429 -1.623108 2.098354 139.999771
[Rope3_Seg08]
32 139.999985 -0.000060 0.000000 0.540838 -0.498236 1.122017 139.999985
33 139.999985 -0.000060 0.000000 0.486396 -0.615511 0.914027 139.999985
[Rope3_Seg09]
32 90.185997 -0.000179 -0.000060 89.793228 -1.359877 -0.847183 90.185997
33 90.185997 -0.000179 -0.000060 89.793228 -1.359877 -0.847183 90.185997
[R_rear_hand01]
32 103.366196 -6.073594 -10.757982 -156.049316 6.070419 -2.795869 104.101845
33 103.366196 -6.073594 -10.757982 -156.049316 6.070419 -2.795869 104.101845
[R_rear_hand02]
32 100.509819 12.039542 -7.992327 -38.708435 1.958051 5.461186 101.543350
33 100.509819 12.039542 -7.992327 -38.708435 1.958051 5.461186 101.543350
[R_rear_hand03]
32 101.539970 5.215704 5.435467 84.307625 -2.361032 4.099037 101.819031
33 101.539970 5.215704 5.435467 84.307625 -2.361033 4.099038 101.819031
[Rope4_Seg01]
32 -0.000025 -0.000093 -0.000144 46.956734 -6.271769 -104.686554 0.000173
33 -0.000026 -0.000098 -0.000146 47.285721 -9.283361 -105.459564 0.000178
[Rope4_Seg02]
32 139.999985 0.000060 0.000119 0.182106 -0.125719 2.350816 139.999985
33 139.999985 0.000060 0.000119 0.111822 1.390240 1.333526 139.999985
[Rope4_Seg03]
32 139.999924 0.000000 -0.000238 0.171269 -0.141136 2.875183 139.999924
33 139.999924 0.000000 -0.000238 0.114848 1.701600 1.625770 139.999924
[Rope4_Seg04]
32 139.999985 0.000000 0.000119 0.129095 -0.185674 3.805367 139.999985
33 139.999985 0.000000 0.000119 0.115805 2.581796 2.210726 139.999985
[Rope4_Seg05]
32 139.999802 -0.000060 -0.000119 0.022583 -0.207150 4.854766 139.999802
33 139.999802 -0.000060 -0.000119 0.086336 3.240408 2.992813 139.999802
[Rope4_Seg06]
32 139.999924 0.000000 0.000060 -0.011083 -0.101923 3.201925 139.999924
33 139.999924 0.000000 0.000060 -0.032777 0.363215 1.618841 139.999924
[Rope4_Seg07]
32 139.999802 0.000000 0.000000 -0.005189 -0.087273 2.499413 139.999802
33 139.999802 0.000000 0.000000 0.025675 -0.087587 0.931422 139.999802
[Rope4_Seg08]
32 139.999924 0.000000 0.000119 -1.577237 -0.062627 1.798032 139.999924
33 139.999924 0.000000 0.000119 -1.529631 0.279495 0.804147 139.999924
[Rope4_Seg09]
32 90.185791 0.000060 0.000060 -135.617828 2.228885 0.850567 90.185791
33 90.185791 0.000060 0.000060 -135.617828 2.228885 0.850567 90.185791
[L_rear_hand01]
32 101.696655 -8.392275 -7.654577 -38.746338 0.246096 177.290207 102.329041
33 101.696655 -8.392275 -7.654577 -38.746338 0.246096 177.290207 102.329041
[L_rear_hand02]
32 102.726799 -1.568258 5.773216 84.315163 -1.142796 176.247437 102.900848
33 102.726799 -1.568258 5.773216 84.315163 -1.142796 176.247437 102.900848
[L_rear_hand03]
32 104.552910 9.721220 -10.420293 -155.747955 -4.630845 179.564758 105.519653
33 104.552910 9.721220 -10.420293 -155.747955 -4.630845 179.564758 105.519653
